<svg id="Layer_1" data-name="Layer 1" xmlns="http://www.w3.org/2000/svg" viewBox="0 0 500 500"><defs><style>.cls-1{fill:#b3b3b3;}</style></defs><path class="cls-1" d="M162.49,313.48H158c-9-.08-15.41-6-15.43-14.2s6.38-14.28,15.55-14.35h4.38v-42c-2.07,0-4,.07-5.95,0a14.24,14.24,0,0,1-.06-28.48c1.95-.08,3.9,0,6,0v-42c-1.72,0-3.45,0-5.18,0-8.52-.17-14.78-6.23-14.77-14.28s6.27-14.09,14.81-14.25c1.66,0,3.32,0,5,0,.29-2.18.43-4.12.82-6a20.79,20.79,0,0,1,20.13-16.65q76.68,0,153.38,0a20.88,20.88,0,0,1,20.76,20.66q0,86.77,0,173.54a20.88,20.88,0,0,1-20.7,20.73q-76.68.06-153.38,0a21,21,0,0,1-20.7-19.89C162.64,315.42,162.57,314.6,162.49,313.48ZM330.78,129.73a22.67,22.67,0,0,1,4,13c0,21.92,0,43.85,0,65.77,0,3.46-1.6,5.52-4.16,5.54s-4.17-2-4.22-5.49c0-.84,0-1.68,0-2.52q0-31.06,0-62.13c0-9.36-5-14.28-14.37-14.28q-63.37,0-126.77,0c-.84,0-1.68,0-2.52,0-7.24.53-12.81,7.44-11.25,14.26,1.8,0,3.66-.06,5.51,0,8.13.29,14.21,6.43,14.19,14.29s-6.12,13.93-14.28,14.21c-1.84.06-3.69,0-5.65,0v42c2,0,3.74,0,5.5,0,8.31.24,14.47,6.38,14.43,14.34s-6.15,13.91-14.32,14.17c-1.84.06-3.68,0-5.59,0v42c1.9,0,3.57,0,5.24,0,8.39.19,14.61,6.18,14.67,14.11s-6.16,14.22-14.64,14.42c-1.75,0-3.49,0-5.17,0-1.13,7.84,4.66,14.26,12.66,14.26q64.63,0,129.29,0c7.56,0,12.8-5.21,13.06-12.78,0-1,0-2.05,0-3.08V249.76c0-4.25,1.37-6.36,4.12-6.42s4.27,2.13,4.28,6.55v2q0,27.15,0,54.29c0,7.31,1,14.81-4.22,21.62,2.32,0,4,0,5.63,0,7.43-.11,12.86-5.49,12.86-13q0-86.05,0-172.12c0-6.66-4.17-11.82-10.54-12.86C336.18,129.41,333.71,129.73,330.78,129.73ZM167.09,152.27c-3.35,0-6.7-.09-10,0-3.67.12-6.15,2.59-6.13,5.88s2.52,5.74,6.22,5.79q9.77.15,19.53,0c3.67-.06,6.15-2.59,6.12-5.88s-2.52-5.68-6.21-5.8C173.42,152.19,170.25,152.26,167.09,152.27Zm-.27,70.53h-9.77c-3.66.21-6.15,2.61-6.13,5.89s2.52,5.75,6.21,5.8q9.76.15,19.53,0c3.67-.06,6.16-2.58,6.13-5.87s-2.51-5.7-6.21-5.81C173.33,222.73,170.07,222.8,166.82,222.8Zm0,82.27h9.76c3.69-.21,6.17-2.58,6.17-5.86s-2.49-5.78-6.17-5.84q-9.76-.15-19.53,0c-3.68.06-6.17,2.55-6.17,5.84s2.49,5.72,6.17,5.84C160.34,305.15,163.6,305.07,166.86,305.07Z"/><path class="cls-1" d="M263.61,224.18a51.18,51.18,0,0,1,18.05,10.39c10.49,9.6,16.18,21.47,16.52,35.76.1,4-1.3,5.38-5.33,5.38H205.24c-5,0-6.51-1.66-6-6.68,2-21.2,12.73-35.92,32.47-44,.58-.24,1.15-.52,2-.88-7.25-8.4-7.21-18.1-4.77-27.82s12.56-15.87,22.42-14.6a21,21,0,0,1,18.36,20.11c0,1.21,0,2.43,0,3.63C270.1,212.32,268.91,218.68,263.61,224.18Zm-19.16,6.92c-16.15-1.28-38.11,20.78-36.17,36.07h81c.5-16.78-20.26-37.45-36.47-36.08v3c0,3.83,0,7.66,0,11.48a4.07,4.07,0,0,1-3.83,4.34,4.24,4.24,0,0,1-4.49-4,28.68,28.68,0,0,1-.06-3.08Zm16.79-24.9c0-1.31,0-2.61,0-3.91a12.49,12.49,0,0,0-11.18-12.23c-6.47-.6-12.4,3.51-13.48,9.91a38.52,38.52,0,0,0-.22,11.09,12.35,12.35,0,0,0,13.56,10.87c6.52-.53,11.24-5.93,11.33-12.94C261.26,208.06,261.24,207.13,261.24,206.2Z"/><path class="cls-1" d="M248.67,299.23h-26c-3.37,0-5.21-1.45-5.28-4s1.85-4.35,5.3-4.35q26,0,52,0c3.47,0,5.49,1.58,5.49,4.22s-2,4.16-5.5,4.17Z"/><path class="cls-1" d="M334.74,228.69a4.13,4.13,0,1,1-4-4.15A4.09,4.09,0,0,1,334.74,228.69Z"/></svg>