<svg xmlns="http://www.w3.org/2000/svg" id="Layer_1" data-name="Layer 1" viewBox="52.04 144.43 396.2 211.25"><defs><style>.cls-1{fill:#f1cc6e;}.cls-2{opacity:0.2;}.cls-3{fill:#302f2f;}.cls-4{fill:#fff;}.cls-5{fill:#67a6da;}.cls-6{fill:#272425;}.cls-7{fill:#32374c;}</style></defs><path class="cls-1" d="M440.52,231h-48a5.24,5.24,0,0,1,0-10.42H420.2c4.26,0,7.72-3.81,7.72-8.51h0c0-4.71-3.46-8.52-7.72-8.52H135c-4,0-7.3,3.61-7.3,8.06v54.21c0,4.45,3.27,8.06,7.3,8.06h206.8a7.22,7.22,0,0,0,2.22,0h79.15a7.78,7.78,0,0,0,7.71-8.12h0c0-4.7-3.45-8.52-7.71-8.52H403.6a5.39,5.39,0,0,1-1.66-4,5,5,0,0,1,4.71-5.21h33.87c4.26,0,7.72-3.81,7.72-8.52h0C448.24,234.77,444.78,231,440.52,231Z"/><g class="cls-2"><ellipse class="cls-3" cx="130.78" cy="306.78" rx="78.74" ry="7.1"/></g><path class="cls-4" d="M187.92,273.64a31.36,31.36,0,0,0,15.6-26.79,30.15,30.15,0,0,0-40.5-28.3,34.17,34.17,0,0,0-66.33-1.69c-1-.09-1.93-.14-2.92-.14a32.43,32.43,0,0,0-20.92,57.21H188C187.92,273.64,188,273.93,187.92,273.64Z"/><path class="cls-3" d="M188,275H72.85a1.08,1.08,0,0,1-.69-.25,33.51,33.51,0,0,1,21.61-59.12c.69,0,1.39,0,2.13.07a35.24,35.24,0,0,1,67.89,1.43,31.25,31.25,0,0,1,40.81,29.71A32.38,32.38,0,0,1,189,274.25a1.07,1.07,0,0,1-1,.76ZM73.25,272.85H187.18a1.13,1.13,0,0,1,.21-.15,30.18,30.18,0,0,0,15.05-25.85,29.06,29.06,0,0,0-39.05-27.28,1.09,1.09,0,0,1-1.43-.79,33.08,33.08,0,0,0-64.22-1.64,1.08,1.08,0,0,1-1.14.79c-1-.09-1.93-.13-2.83-.13a31.35,31.35,0,0,0-20.52,55.05Z"/><polygon class="cls-5" points="122.47 284.52 122.47 261.23 104.09 261.23 104.09 284.52 95.65 284.52 112.98 301.84 130.3 284.52 122.47 284.52"/><path class="cls-6" d="M113,302.89a1,1,0,0,1-.74-.31L94.91,285.25a1,1,0,0,1-.22-1.13,1,1,0,0,1,1-.65h7.4V261.23a1,1,0,0,1,1-1.05h18.38a1,1,0,0,1,1,1.05v22.24h6.79a1.07,1.07,0,0,1,1,.65,1,1,0,0,1-.23,1.13l-17.33,17.33A1,1,0,0,1,113,302.89ZM98.17,285.56,113,300.37l14.8-14.81h-5.31a1,1,0,0,1-1-1V262.27H105.14v22.25a1,1,0,0,1-1,1Z"/><polygon class="cls-5" points="139.27 267.27 139.27 290.56 157.64 290.56 157.64 267.27 166.09 267.27 148.76 249.95 131.44 267.27 139.27 267.27"/><path class="cls-6" d="M157.64,291.61H139.27a1,1,0,0,1-1.05-1.05V268.32h-6.78a1,1,0,0,1-1-.65,1,1,0,0,1,.23-1.13L148,249.21a1.08,1.08,0,0,1,1.48,0l17.32,17.33a1,1,0,0,1-.73,1.78h-7.4v22.24A1,1,0,0,1,157.64,291.61Zm-17.33-2.09H156.6V267.27a1,1,0,0,1,1-1h5.93l-14.81-14.81L134,266.23h5.32a1,1,0,0,1,1,1Z"/><path class="cls-7" d="M233.44,220.16a2,2,0,0,1,.73-2.58c5-1.4,6.38,1.63,6.61,2.58.95,2.35,1.46,13.73.73,19.16-1.29,13-5.72,15.63-8.07,16.81-8.07,2-10.2-2.8-11.15-4.48-1.68-3.31-2.35-8.3-2.35-15.41,0-9.47,1.17-16.53,3.08-17.26a5.05,5.05,0,0,1,4.48,1c.73.72.73,3,.28,6.83a108.14,108.14,0,0,0-.5,14.23c.45,5.21,1.62,9.92,2.35,9.69,1-.22,3.31-5.65,4-9.69C235.06,233.89,234.84,222.74,233.44,220.16Z"/><path class="cls-7" d="M249.07,217.75c.22.23.9.23,1.79,0a14.21,14.21,0,0,1,8.18.67c4.65,2.69,5,8.07,3.14,13.34-3.81,6.83-10.42,8.91-10.42,9.13,0,.9,2.41,13.33,1.06,15.29-3.64,1.52-5.1-.44-5.32-.67-.67-.67-1.29-4.2-2.18-10.64-.23-3.53-.45-5.77-.45-13.56,0-5.32-.23-9.75-.23-10.2s1.07-2,1.07-2.24c.22-.89.67-1.34,2-1.12Zm8.23,8a4.45,4.45,0,0,0-.89-3.81c-.67-.44-1.79-.44-3.81,0-1.35.23-1.29.23-1.51,2.69,0,3.31.22,9.81.44,9.81A12.05,12.05,0,0,0,257.3,225.76Z"/><path class="cls-7" d="M266.27,224.64c-.23-6.16-.23-6.66.22-7.11s3.08-.45,4,0c1.18.73,1.46,1.68,1.69,3.81.44,2.35,1,14.45,1.17,22.24,0,3.3.23,6.16.23,6.16a8.33,8.33,0,0,0,1.68-.22,20.82,20.82,0,0,1,5.88-1.18c2.13-.22,3.59,1.18,3.59,2.58-.23,2.29-10.26,4.2-14.24,5.94-.95.44-2.57-.51-3.3-1.46-.45-.45-.5-.67-.73-12.27C266.49,236.52,266.27,228.17,266.27,224.64Z"/><path class="cls-7" d="M295.34,218.65c0-.23.39-.67.62-.9.67-.67.67-.67,2.24-.45,2.24,0,3.92,1,5.83,2.69,6.66,6,8,14.74,7.84,19.22-.28,10.36-4.93,14.73-8.52,16.53a11.2,11.2,0,0,1-9.8-.45c-6.78-3.08-6.11-18.71-5.38-21.91,2.24-9.8,4.71-11.82,6.28-13.39A3.51,3.51,0,0,0,295.34,218.65Zm6.67,8.29a9.78,9.78,0,0,0-1.79-3.14c-.45-.67-.68-.89-.9-.89-7,5.54-6,21.4-3.36,26.38a7.11,7.11,0,0,0,1.79,2.41c1.12.23,3.59-2,4.93-4C306,241.67,305.82,234.11,302,226.94Z"/><path class="cls-7" d="M317.64,233c2.41-11.32,3.36-14.51,4.37-15.52a4.21,4.21,0,0,1,1.57-.39c3.08-.34,3.41,2.18,3.19,4.14a5.24,5.24,0,0,0,.39,3c.23.78,2,5.55,3.42,9.75,2.18,6.39,2.58,7.56,3,7.56,1,.39,2.41-.22,2.74,1.4.79,2-1.73,2.13-1.73,2.13,0,.23,2,6.95,2,7.17-.06,3.31-6,2.86-6.16.62-.23-.39-2.36-6.56-2.36-6.56-.39-.22-5,1.57-5.38,1.57-.78.39-.61,0-1.4,4.6a15.06,15.06,0,0,1-.61,3.36c-2.36,2.63-6.89-.28-6.16-2.58A163,163,0,0,1,317.64,233Zm9,8.57L325.37,238c-.62-2-1.18-3.42-1.18-3.42a53,53,0,0,0-1.4,8.18A12.41,12.41,0,0,0,326.6,241.56Z"/><path class="cls-7" d="M339.37,216.91a2.42,2.42,0,0,1,1.35-1.34,6.89,6.89,0,0,1,4.09.89c0,.23.9.23,1.79.23,15.74.33,16,14,16.19,16.69a25.81,25.81,0,0,1-2.24,11.26c-2,4.82-7.62,9.7-9.19,10.82-4,2.74-7.5,0-7.73-1.35a4.27,4.27,0,0,0-.39-1.34c-.73-1.12-2.52-15.52-2.52-16.25-.45-1.79-1.12-12.83-1.35-14.4a2.67,2.67,0,0,0-.44-1.85c-1.12-1.12-1.07-2-.17-2.46A1.1,1.1,0,0,0,339.37,216.91ZM356.07,234c.45-5.44-1.79-9.86-6.05-12.16a4.85,4.85,0,0,0-2.52-.67c-1.57-.23-1.57-.28-1.35.45,1.12,16.69,2.64,24.59,3.14,26.33A18.52,18.52,0,0,0,356.07,234Z"/><path class="cls-5" d="M187.05,155.21a1.17,1.17,0,0,1-.83-2l8.42-8.43a1.17,1.17,0,0,1,1.66,0,1.18,1.18,0,0,1,0,1.67l-8.42,8.42A1.16,1.16,0,0,1,187.05,155.21Z"/><path class="cls-5" d="M195.47,155.21a1.16,1.16,0,0,1-.83-.34l-8.42-8.42a1.18,1.18,0,0,1,0-1.67,1.17,1.17,0,0,1,1.66,0l8.42,8.43a1.17,1.17,0,0,1-.83,2Z"/><path class="cls-5" d="M302.91,315.81a1.21,1.21,0,0,1-.83-.34,1.18,1.18,0,0,1,0-1.67l8.43-8.42a1.17,1.17,0,0,1,1.66,1.66l-8.43,8.43A1.21,1.21,0,0,1,302.91,315.81Z"/><path class="cls-5" d="M311.34,315.81a1.19,1.19,0,0,1-.83-.34L302.08,307a1.17,1.17,0,0,1,1.66-1.66l8.43,8.42a1.18,1.18,0,0,1,0,1.67A1.21,1.21,0,0,1,311.34,315.81Z"/><path class="cls-5" d="M261.36,189.4a5.72,5.72,0,1,1,5.72-5.72A5.72,5.72,0,0,1,261.36,189.4Zm0-9.08a3.36,3.36,0,1,0,3.36,3.36A3.37,3.37,0,0,0,261.36,180.32Z"/><path class="cls-5" d="M396.79,169.25a1.18,1.18,0,0,1-.83-2l8.42-8.42a1.18,1.18,0,0,1,1.67,0,1.17,1.17,0,0,1,0,1.66l-8.43,8.42A1.18,1.18,0,0,1,396.79,169.25Z"/><path class="cls-5" d="M405.22,169.25a1.2,1.2,0,0,1-.84-.35L396,160.48a1.17,1.17,0,1,1,1.66-1.66l8.43,8.42a1.18,1.18,0,0,1-.83,2Z"/><path class="cls-5" d="M120.67,355.68a1.17,1.17,0,0,1-.83-2l8.42-8.42a1.17,1.17,0,0,1,1.66,1.66l-8.42,8.42A1.16,1.16,0,0,1,120.67,355.68Z"/><path class="cls-5" d="M129.09,355.68a1.16,1.16,0,0,1-.83-.34l-8.42-8.42a1.17,1.17,0,0,1,1.66-1.66l8.42,8.42a1.17,1.17,0,0,1-.83,2Z"/><path class="cls-5" d="M416.66,329.38a4,4,0,1,1,4-4A4,4,0,0,1,416.66,329.38Zm0-6.35a2.35,2.35,0,1,0,2.35,2.35A2.36,2.36,0,0,0,416.66,323Z"/><path class="cls-5" d="M200,334.27a5.72,5.72,0,1,1,5.71-5.72A5.73,5.73,0,0,1,200,334.27Zm0-9.08a3.37,3.37,0,1,0,3.36,3.36A3.37,3.37,0,0,0,200,325.19Z"/><path class="cls-5" d="M377.85,300.84H356.24a1.18,1.18,0,1,1,0-2.35h21.61a1.18,1.18,0,1,1,0,2.35Z"/><path class="cls-5" d="M302.94,184.86H278.28a1.18,1.18,0,1,1,0-2.35h24.66a1.18,1.18,0,0,1,0,2.35Z"/><path class="cls-5" d="M234.33,329.73H214.22a1.18,1.18,0,1,1,0-2.35h20.11a1.18,1.18,0,1,1,0,2.35Z"/><path class="cls-5" d="M90.38,163.64a4,4,0,1,1,4-4A4,4,0,0,1,90.38,163.64Zm0-6.35a2.36,2.36,0,1,0,2.35,2.36A2.36,2.36,0,0,0,90.38,157.29Z"/></svg>