<svg xmlns="http://www.w3.org/2000/svg" id="Layer_1" data-name="Layer 1" viewBox="0 0 126.56 172.53"><defs><style>.cls-1{opacity:0.8;}.cls-2,.cls-3{fill:#272361;}.cls-3{font-size:29.49px;font-family:OpenSans-Light, Open Sans;font-weight:300;}</style></defs><g class="cls-1"><path class="cls-2" d="M11.76,113.26H9.09c-5.3,0-9.07-3.51-9.09-8.36s3.76-8.41,9.16-8.45h2.58V71.7c-1.22,0-2.36,0-3.5,0a8.39,8.39,0,0,1,0-16.77c1.15-.05,2.3,0,3.55,0V30.17c-1,0-2,0-3.05,0-5-.1-8.7-3.67-8.7-8.41s3.7-8.3,8.72-8.39c1,0,2,0,3,0,.17-1.29.26-2.43.48-3.54A12.26,12.26,0,0,1,24,0q45.16,0,90.33,0a12.31,12.31,0,0,1,12.23,12.17q0,51.11,0,102.21a12.29,12.29,0,0,1-12.19,12.2q-45.16,0-90.33,0a12.38,12.38,0,0,1-12.2-11.71C11.85,114.4,11.81,113.92,11.76,113.26ZM110.87,5a13.19,13.19,0,0,1,2.38,7.63q0,19.36,0,38.73c0,2-1,3.25-2.46,3.26s-2.45-1.18-2.48-3.23c0-.49,0-1,0-1.48q0-18.3,0-36.59c0-5.52-2.93-8.41-8.46-8.41H25.18c-.5,0-1,0-1.48,0-4.27.31-7.55,4.38-6.63,8.39,1.06,0,2.15,0,3.24,0a8.39,8.39,0,0,1,0,16.78c-1.08,0-2.17,0-3.33,0V54.9c1.17,0,2.21,0,3.24,0a8.4,8.4,0,1,1,.07,16.79c-1.09,0-2.17,0-3.29,0V96.44c1.12,0,2.1,0,3.08,0,4.94.11,8.6,3.64,8.64,8.31s-3.62,8.37-8.62,8.49c-1,0-2.06,0-3.05,0a7.27,7.27,0,0,0,7.46,8.4q38.07,0,76.15,0a7.41,7.41,0,0,0,7.69-7.53c0-.6,0-1.21,0-1.81q0-18.3,0-36.59c0-2.51.8-3.75,2.42-3.79s2.52,1.26,2.52,3.86V77q0,16,0,32c0,4.31.58,8.72-2.48,12.73,1.36,0,2.34,0,3.31,0a7.42,7.42,0,0,0,7.58-7.64q0-50.68,0-101.37a7.32,7.32,0,0,0-6.21-7.57A29.82,29.82,0,0,0,110.87,5ZM14.47,18.31c-2,0-3.94,0-5.91,0a3.45,3.45,0,1,0,0,6.88c3.84.05,7.67.06,11.5,0a3.42,3.42,0,0,0,3.61-3.46,3.47,3.47,0,0,0-3.66-3.41C18.2,18.26,16.34,18.31,14.47,18.31Zm-.16,41.54H8.56A3.51,3.51,0,0,0,5,63.33a3.45,3.45,0,0,0,3.66,3.41c3.83.06,7.67.06,11.5,0a3.43,3.43,0,0,0,3.61-3.46,3.47,3.47,0,0,0-3.66-3.42C18.15,59.81,16.23,59.85,14.31,59.85Zm0,48.45h5.75a3.5,3.5,0,0,0,3.63-3.45,3.44,3.44,0,0,0-3.63-3.44q-5.76-.09-11.5,0a3.45,3.45,0,1,0,0,6.88C10.5,108.35,12.42,108.3,14.34,108.3Z"/><path class="cls-2" d="M71.32,60.66A30.25,30.25,0,0,1,82,66.78a28.47,28.47,0,0,1,9.73,21.06c0,2.37-.77,3.17-3.14,3.17H36.94c-2.93,0-3.83-1-3.56-3.93,1.16-12.48,7.5-21.15,19.12-25.92.35-.14.69-.31,1.15-.52-4.27-5-4.24-10.66-2.8-16.38s7.39-9.35,13.2-8.6A12.33,12.33,0,0,1,74.87,47.5c0,.71,0,1.43,0,2.14C75.14,53.68,74.44,57.42,71.32,60.66ZM60,64.74C50.52,64,37.59,77,38.73,86H86.46C86.76,76.1,74.53,63.93,65,64.73v1.75c0,2.26,0,4.51,0,6.76a2.41,2.41,0,0,1-2.26,2.56,2.5,2.5,0,0,1-2.64-2.39,15.58,15.58,0,0,1,0-1.81C60,69.31,60,67,60,64.74Zm9.88-14.67c0-.77,0-1.53,0-2.3a7.35,7.35,0,0,0-6.59-7.2,7.2,7.2,0,0,0-7.94,5.84,23,23,0,0,0-.13,6.52,7.28,7.28,0,0,0,8,6.41c3.84-.32,6.62-3.49,6.67-7.62C69.93,51.17,69.92,50.62,69.92,50.07Z"/><path class="cls-2" d="M62.52,104.86c-5.11,0-10.22,0-15.32,0-2,0-3.07-.85-3.12-2.38s1.09-2.56,3.12-2.56q15.33,0,30.65,0c2,0,3.22.93,3.22,2.49s-1.17,2.45-3.23,2.45C72.73,104.87,67.62,104.86,62.52,104.86Z"/><path class="cls-2" d="M113.21,63.32a2.44,2.44,0,1,1-2.34-2.45A2.41,2.41,0,0,1,113.21,63.32Z"/></g><text class="cls-3" transform="translate(5.24 163.86)">Contacts</text></svg>